<svg width="31" height="24" viewBox="0 0 31 24" fill="none" xmlns="http://www.w3.org/2000/svg">
<path d="M17.1558 20.25H9.89066C6.78905 20.25 4.26569 17.7267 4.26569 14.6251V8.85947C4.26569 5.97621 2.82861 3.30739 0.421544 1.72031C-0.0107343 1.43531 -0.130077 0.853876 0.154921 0.421598C0.439919 -0.0107278 1.02131 -0.130118 1.45368 0.154974C2.82776 1.06097 3.94254 2.2559 4.73969 3.63167C4.91195 3.82466 6.30104 5.29699 8.57821 5.29699H19.3738C22.3191 5.24191 24.6245 8.19769 23.8544 11.0406L22.6117 15.9939C21.9829 18.4998 19.7394 20.25 17.1558 20.25V20.25ZM5.90415 6.64234C6.06001 7.36238 6.14068 8.10483 6.14068 8.85947V14.6251C6.14068 16.6928 7.82292 18.375 9.89066 18.375H17.1558C18.8782 18.375 20.3739 17.2082 20.793 15.5376L22.0358 10.5844C22.4933 8.89509 21.1233 7.13931 19.3738 7.17198H8.57816C7.54828 7.17198 6.65185 6.94993 5.90415 6.64234V6.64234ZM9.42191 22.8281C9.42191 22.1809 8.89724 21.6563 8.25004 21.6563C6.69511 21.7182 6.69647 23.9387 8.25004 24C8.89724 24 9.42191 23.4753 9.42191 22.8281ZM18.75 22.8281C18.75 22.1809 18.2253 21.6563 17.5781 21.6563C16.0232 21.7182 16.0245 23.9387 17.5781 24C18.2253 24 18.75 23.4753 18.75 22.8281ZM20.3113 9.98446C20.3113 9.46668 19.8916 9.04697 19.3738 9.04697H8.95316C7.7093 9.09647 7.71023 10.8729 8.95316 10.922H19.3738C19.8916 10.922 20.3113 10.5022 20.3113 9.98446Z" fill="#3D3D3D"/>
<circle cx="23" cy="8" r="7" fill="#46A358" stroke="white" stroke-width="2"/>
<path d="M23.2386 11.0994C22.9143 11.0947 22.5947 11.0355 22.2798 10.9219C21.9673 10.8082 21.6832 10.6188 21.4276 10.3537C21.1719 10.0885 20.9671 9.73224 20.8132 9.2848C20.6617 8.83736 20.5859 8.27865 20.5859 7.60866C20.5859 6.97419 20.6487 6.41075 20.7741 5.91832C20.902 5.4259 21.0855 5.01042 21.3246 4.67188C21.5637 4.33097 21.8525 4.07173 22.1911 3.89418C22.5296 3.71662 22.9096 3.62784 23.331 3.62784C23.7642 3.62784 24.1489 3.71307 24.4851 3.88352C24.8213 4.05398 25.0935 4.28954 25.3018 4.5902C25.5125 4.89086 25.6463 5.23295 25.7031 5.61648H24.62C24.5466 5.31345 24.401 5.06605 24.1832 4.87429C23.9654 4.68253 23.6813 4.58665 23.331 4.58665C22.7983 4.58665 22.3828 4.81866 22.0845 5.28267C21.7886 5.74669 21.6394 6.39181 21.6371 7.21804H21.6903C21.8158 7.01207 21.9697 6.83688 22.152 6.69247C22.3366 6.54569 22.5426 6.43324 22.7699 6.35511C22.9995 6.27462 23.241 6.23438 23.4943 6.23438C23.9157 6.23438 24.2969 6.33736 24.6378 6.54332C24.9811 6.74692 25.2545 7.02865 25.4581 7.38849C25.6617 7.74834 25.7635 8.16027 25.7635 8.62429C25.7635 9.0883 25.6581 9.50852 25.4474 9.88494C25.2391 10.2614 24.9455 10.5597 24.5668 10.7798C24.188 10.9976 23.7453 11.1042 23.2386 11.0994ZM23.2351 10.1761C23.5144 10.1761 23.7642 10.1075 23.9844 9.97017C24.2045 9.83286 24.3786 9.6482 24.5064 9.41619C24.6342 9.18419 24.6982 8.92495 24.6982 8.63849C24.6982 8.35914 24.6354 8.10464 24.5099 7.875C24.3868 7.64536 24.2164 7.46307 23.9986 7.32812C23.7831 7.19318 23.5369 7.12571 23.2599 7.12571C23.0492 7.12571 22.8539 7.16596 22.674 7.24645C22.4964 7.32694 22.3402 7.43821 22.2053 7.58026C22.0703 7.7223 21.9638 7.88565 21.8857 8.07031C21.8099 8.2526 21.772 8.44555 21.772 8.64915C21.772 8.9214 21.8348 9.17353 21.9602 9.40554C22.0881 9.63755 22.2621 9.82457 22.4822 9.96662C22.7048 10.1063 22.9557 10.1761 23.2351 10.1761Z" fill="white"/>
</svg>
